<?xml version="1.0" standalone="no"?>
<svg version="1.0" xmlns="http://www.w3.org/2000/svg"
 width="1015.000000pt" height="768.000000pt" viewBox="0 0 1015.000000 768.000000"
 preserveAspectRatio="xMidYMid meet">
    <style type="text/css">
        .st0{fill:#023671;}
    </style>
<g transform="translate(0.000000,768.000000) scale(0.100000,-0.100000)"
fill="#000000" stroke="none">
<path class="st0" d="M6498 7659 c-1434 -157 -2756 -502 -3641 -951 -397 -201 -700 -420
-997 -717 -359 -360 -574 -719 -657 -1093 -26 -120 -26 -440 1 -553 76 -324
238 -590 533 -875 271 -262 690 -550 1071 -736 1006 -492 2418 -816 4062 -933
534 -39 770 -46 1475 -45 602 1 759 4 1225 27 294 15 546 27 559 27 13 0 22 3
18 6 -3 3 -120 17 -259 30 -2759 255 -4607 949 -5525 2075 -240 295 -389 591
-450 894 -24 124 -24 386 0 508 132 654 722 1282 1733 1843 278 154 621 316
912 430 92 35 176 69 187 74 32 14 -59 10 -247 -11z"/>

<path class="st0" d="M6315 6575 c-986 -210 -1714 -623 -1971 -1118 -88 -171 -124 -317
-124 -511 0 -213 52 -420 161 -641 111 -226 323 -471 614 -710 543 -445 1267
-785 2163 -1016 106 -28 200 -49 208 -47 9 2 -110 59 -263 127 -342 153 -468
215 -659 327 -355 207 -606 394 -838 622 -292 289 -456 566 -523 882 -24 116
-24 344 0 460 83 395 334 789 731 1149 191 173 399 332 589 451 37 23 67 44
67 46 0 8 -48 2 -155 -21z"/>
<path class="st0" d="M1125 5474 c-353 -141 -659 -346 -833 -557 -238 -289 -332 -611 -262
-897 64 -266 177 -459 395 -675 137 -137 224 -205 402 -317 562 -354 1524
-624 2532 -712 222 -20 233 -16 71 24 -469 117 -958 303 -1295 495 -625 355
-987 797 -1106 1351 -30 140 -38 435 -15 594 32 223 97 438 192 637 24 51 44
95 44 98 0 9 -11 5 -125 -41z"/>
<path d="M7500 637 c-326 -338 -596 -619 -598 -626 -3 -8 110 -11 435 -11
l438 0 90 90 90 90 362 0 363 0 0 -90 0 -90 420 0 420 0 0 620 0 620 -248 0
c-137 0 -458 3 -713 6 l-464 6 -595 -615z m1180 196 c0 -71 3 -179 7 -240 l6
-113 -247 0 -248 0 233 240 c128 132 236 240 241 240 4 0 8 -57 8 -127z"/>
<path d="M1143 1173 c-132 -295 -503 -1153 -503 -1162 0 -8 123 -11 467 -9
l467 3 268 605 c147 333 270 611 273 618 3 9 -94 12 -469 12 l-473 0 -30 -67z"/>
<path d="M2411 1223 c-13 -25 -531 -1213 -531 -1218 0 -3 175 -5 389 -5 l388
0 164 340 c90 187 167 340 170 340 4 0 58 -152 120 -337 l114 -338 470 -2 470
-3 270 605 c149 333 271 612 273 620 3 13 -44 15 -391 15 l-395 0 -168 -371
c-93 -204 -171 -364 -173 -357 -3 7 -53 173 -111 368 l-105 355 -472 3 c-442
2 -473 1 -482 -15z"/>
<path d="M5166 1232 c-7 -12 -536 -1223 -536 -1228 0 -2 449 -4 998 -4 l997 0
61 138 61 137 -593 5 -593 5 37 83 37 82 596 0 596 0 55 123 55 122 -592 5
-593 5 37 82 36 83 596 0 595 0 77 170 c42 93 77 177 77 185 0 13 -116 15
-999 15 -550 0 -1002 -4 -1005 -8z"/>
</g>
</svg>
